<svg width="36" height="34" viewBox="0 0 36 34" fill="none" xmlns="http://www.w3.org/2000/svg">
<path d="M16.8946 0L11.8264 5.06016L16.8946 10.1203L21.9628 5.06016L16.8946 0Z" fill="#2F374C"/>
<path d="M10.9814 5.90423L5.9132 10.9644L10.9814 16.0245L16.0496 10.9644L10.9814 5.90423Z" fill="#2F374C"/>
<path d="M11.8268 16.8681L16.895 11.808L21.9632 16.8681L16.895 21.9283L11.8268 16.8681Z" fill="#2F374C"/>
<path d="M5.06821 11.8085L0 16.8686L5.06821 21.9288L10.1364 16.8686L5.06821 11.8085Z" fill="#2F374C"/>
<path d="M5.91361 22.7726L10.9818 17.7124L16.05 22.7726L10.9818 27.8328L5.91361 22.7726Z" fill="#2F374C"/>
<path d="M16.8955 23.6162L11.8273 28.6764L16.8955 33.7365L21.9637 28.6764L16.8955 23.6162Z" fill="#2F374C"/>
<path d="M28.5919 16.0924L33.9451 14.0407L36 19.3854L30.6468 21.437L28.5919 16.0924Z" fill="#2F374C"/>
<path d="M24.8568 17.8732L19.4468 21.3809L22.9601 26.7824L28.3702 23.2746L24.8568 17.8732Z" fill="#2F374C"/>
<path d="M19.4404 9.67777L24.8591 6.19988L28.3425 11.6099L22.9238 15.0878L19.4404 9.67777Z" fill="#2F374C"/>
</svg>
