<svg width="100" height="100" viewBox="0 0 100 100" fill="none" xmlns="http://www.w3.org/2000/svg">
<circle opacity="0.6" cx="50" cy="50" r="42" fill="url(#paint0_linear)"/>
<mask id="mask0" mask-type="alpha" maskUnits="userSpaceOnUse" x="8" y="8" width="84" height="84">
<circle cx="50" cy="50" r="42" fill="url(#paint1_linear)"/>
</mask>
<g mask="url(#mask0)">
<path d="M25 14L43 24V44L25 54L7 44V24L25 14Z" fill="#CEE6FD"/>
<path fill-rule="evenodd" clip-rule="evenodd" d="M43 24L25 14L7 24V44L25 54L43 44V24ZM41.2207 24.308L25 15.2965L8.77926 24.308L25 32.9729L41.2207 24.308ZM24.4333 33.9551L8.13333 25.2479V43.3331L24.4333 52.3887V33.9551ZM25.5667 33.9551V52.3887L41.8667 43.3331V25.2479L25.5667 33.9551Z" fill="#FDFDFD"/>
<path d="M52 32L70 42V62L52 72L34 62V42L52 32Z" fill="#F6FBFF"/>
<path fill-rule="evenodd" clip-rule="evenodd" d="M70 42L52 32L34 42V62L52 72L70 62V42ZM68.2207 42.308L52 33.2965L35.7793 42.308L52 50.9729L68.2207 42.308ZM51.4333 51.9551L35.1333 43.2479V61.3331L51.4333 70.3887V51.9551ZM52.5667 51.9551V70.3887L68.8667 61.3331V43.2479L52.5667 51.9551Z" fill="#2492F7"/>
</g>
<path d="M78.5 50L97 60V80L78.5 90L60 80V60L78.5 50Z" fill="#2492F7"/>
<path fill-rule="evenodd" clip-rule="evenodd" d="M97 60L78.5 50L60 60V80L78.5 90L97 80V60ZM95.1826 60.3059L78.5 51.2883L61.8174 60.3059L78.5 68.9767L95.1826 60.3059ZM77.9333 69.9595L61.1333 61.2277V79.3243L77.9333 88.4054V69.9595ZM79.0667 69.9595V88.4054L95.8667 79.3243V61.2277L79.0667 69.9595Z" fill="#9DCEFB"/>
<defs>
<linearGradient id="paint0_linear" x1="50" y1="8" x2="50" y2="92" gradientUnits="userSpaceOnUse">
<stop stop-color="#F0F8FF"/>
<stop offset="1" stop-color="#F2F9FF"/>
</linearGradient>
<linearGradient id="paint1_linear" x1="50" y1="8" x2="50" y2="92" gradientUnits="userSpaceOnUse">
<stop stop-color="#F0F8FF"/>
<stop offset="1" stop-color="#F2F9FF"/>
</linearGradient>
</defs>
</svg>
