<svg width="100" height="100" viewBox="0 0 100 100" fill="none" xmlns="http://www.w3.org/2000/svg">
<circle opacity="0.6" cx="49" cy="51" r="42" fill="url(#paint0_linear)"/>
<mask id="mask0" mask-type="alpha" maskUnits="userSpaceOnUse" x="7" y="9" width="84" height="84">
<circle cx="49" cy="51" r="42" fill="#F0F8FF"/>
</mask>
<g mask="url(#mask0)">
<path fill-rule="evenodd" clip-rule="evenodd" d="M68.5187 34.8345L25.6528 105.138V52.7718H26.3928V101.315L37.5086 64.5049L38.217 64.7188L27.2138 101.156L67.8869 34.4492L68.5187 34.8345Z" fill="#2492F7"/>
<path d="M35.384 65.1924L37.988 62.8735C38.2355 62.6531 38.6286 62.7717 38.7127 63.0923L39.8287 67.3437C39.9264 67.7161 39.5362 68.0279 39.1946 67.8504L35.4746 65.918C35.1987 65.7746 35.1518 65.3992 35.384 65.1924Z" fill="#2492F7"/>
<path opacity="0.8" d="M36.4011 64.2993L38.0784 62.8616C38.3329 62.6435 38.7281 62.7752 38.8008 63.1024L39.28 65.2589C39.3348 65.5051 39.1736 65.746 38.9227 65.7718C38.5146 65.8138 37.9225 65.8407 37.5303 65.71C37.1381 65.5793 36.6806 65.2025 36.3793 64.924C36.1941 64.7528 36.2097 64.4634 36.4011 64.2993Z" fill="#0875DA"/>
<path d="M23.6686 55.594L25.6989 52.203C25.8568 51.9394 26.2282 51.9119 26.4231 52.1494L29.0356 55.3326C29.2676 55.6153 29.0776 56.0415 28.7123 56.0578L24.0694 56.2657C23.7159 56.2815 23.4868 55.8976 23.6686 55.594Z" fill="#CEE6FD"/>
<path opacity="0.7" d="M24.4345 54.5313L25.7179 51.9644C25.8703 51.6595 26.2953 51.633 26.4844 51.9167L28.0212 54.2217C28.1621 54.433 28.0969 54.7178 27.8706 54.833C27.4861 55.0286 26.9012 55.2911 26.4301 55.3501C25.8877 55.4181 25.1611 55.2584 24.6894 55.1279C24.4324 55.0568 24.3153 54.7698 24.4345 54.5313Z" fill="#9DCEFB"/>
<path d="M36.3826 37.6018C35.1824 49.114 31.535 53.1662 26.0225 53.5118C20.5101 53.8574 16.4402 48.32 15.3302 39.81C14.2202 31.3 18.2901 24.2818 25.2825 24.2818C32.275 24.2818 36.4447 29.7131 36.3826 37.6018Z" fill="#CEE6FD"/>
<g opacity="0.1" filter="url(#filter0_f)">
<path d="M33.4966 42.4933C32.0428 45.8014 30.0728 47.4731 27.8996 47.6094C24.2187 47.8401 19.1957 42.0347 17.5881 35.7874C17.1838 34.2162 17.1035 32.6633 17.3028 31.2131C16.0047 33.4978 15.5866 36.4467 16.3628 39.4632C17.9705 45.7105 22.9934 51.516 26.6743 51.2852C29.5419 51.1054 32.0559 48.2519 33.4966 42.4933Z" fill="#44A5FF"/>
</g>
<path fill-rule="evenodd" clip-rule="evenodd" d="M22.6689 29.5367C23.2729 29.6421 23.6771 30.217 23.5717 30.8209L21.9256 40.2596C21.8803 40.5196 22.1139 40.7421 22.3714 40.6842L23.9243 40.3344L24.0612 35.392C24.0781 34.7792 24.5887 34.2962 25.2015 34.3132C25.8143 34.3302 26.2973 34.8407 26.2803 35.4535L26.1619 39.73L27.4087 39.3617C27.9966 39.188 28.614 39.5238 28.7877 40.1117C28.9614 40.6996 28.6256 41.317 28.0377 41.4907L26.1077 42.0609L26.0589 45.3484C26.0498 45.9614 25.5456 46.4509 24.9326 46.4418C24.3196 46.4327 23.8301 45.9285 23.8392 45.3155L23.8792 42.6202L22.8592 42.8499C21.0568 43.2558 19.4212 41.6982 19.7386 39.8782L21.3847 30.4395C21.4901 29.8356 22.065 29.4314 22.6689 29.5367Z" fill="#44A5FF"/>
<path d="M54.1426 52.4019C50.5348 60.159 42.1748 65.2131 37.8625 63.8719C33.5503 62.5307 31.2948 54.979 32.578 45.6947C33.8612 36.4104 41.8976 32.0497 47.8525 33.9019C53.8074 35.754 58.1065 43.879 54.1426 52.4019Z" fill="#2492F7"/>
<g opacity="0.2" filter="url(#filter1_f)">
<path d="M47.7688 57.5036C45.8827 58.4967 43.8809 58.7981 42.0067 58.2152C37.0606 56.6768 34.876 49.562 37.1273 42.3238C37.6216 40.7344 38.2887 39.2713 39.0812 37.9718C37.3443 39.7288 35.888 42.1398 35.0073 44.9713C32.8626 51.8669 34.9438 58.6449 39.6558 60.1105C42.3487 60.948 45.3182 59.8691 47.7688 57.5036Z" fill="#0875DA"/>
</g>
<path fill-rule="evenodd" clip-rule="evenodd" d="M47.1005 42.5065C47.1999 43.9629 46.7608 45.7146 46.2724 47.2273C45.844 48.554 45.2854 50.2681 44.5395 51.6645C44.1655 52.3649 43.7134 53.0462 43.1583 53.5716C42.5954 54.1044 41.8734 54.5242 40.9928 54.5652C40.0749 54.6078 39.2733 54.3529 38.66 53.7964C38.0717 53.2625 37.7651 52.5494 37.6114 51.8653C37.3092 50.5209 37.5146 48.9262 37.8199 47.7201C38.4306 45.3074 39.1936 43.1747 40.1386 41.6684C41.043 40.2267 42.3709 38.9879 44.1449 39.2653C45.0456 39.3466 45.8057 39.7014 46.3374 40.352C46.8531 40.9828 47.0499 41.7656 47.1005 42.5065ZM44.6186 41.7569C44.5278 41.6459 44.3555 41.5084 43.9211 41.4742C43.8872 41.4716 43.8535 41.4673 43.82 41.4616C43.423 41.3933 42.8125 41.5835 42.0191 42.8481C41.2576 44.0621 40.5628 45.9308 39.9721 48.2649C39.7032 49.3271 39.586 50.5269 39.7774 51.3786C39.8704 51.7925 40.0147 52.0279 40.1519 52.1524C40.264 52.2541 40.4625 52.3674 40.8898 52.3476C41.0854 52.3385 41.3274 52.2479 41.6322 51.9594C41.9448 51.6635 42.2642 51.2124 42.5813 50.6187C43.2178 49.4269 43.7204 47.9059 44.1598 46.5451C44.6401 45.0578 44.9539 43.6572 44.8856 42.6577C44.8524 42.1706 44.7352 41.8996 44.6186 41.7569Z" fill="white"/>
</g>
<path d="M64.5535 33.8407L68.9967 31.0084C69.2715 30.8332 69.6352 31.004 69.6759 31.3274L70.4891 37.7927C70.537 38.1735 70.1119 38.4316 69.7961 38.2134L64.5397 34.5804C64.2785 34.3998 64.2858 34.0114 64.5535 33.8407Z" fill="#0875DA"/>
<path opacity="0.8" d="M66.0326 32.9052L68.9831 31.0182C69.2612 30.8404 69.6291 31.0173 69.6639 31.3455L70.0406 34.9041C70.0674 35.1572 69.8766 35.3792 69.6221 35.3756C69.0578 35.3675 68.1093 35.3047 67.4999 35C66.8853 34.6926 66.2605 33.9618 65.9173 33.5162C65.7653 33.3188 65.8227 33.0395 66.0326 32.9052Z" fill="#0867BF"/>
<path d="M89.3077 20.2771C85.6566 28.8395 73.7583 34.8971 69.0752 32.9001C64.3921 30.9032 64.2376 19.9335 67.2878 10.8876C70.9389 2.32516 77.6157 0.0606249 83.6963 2.65348C89.777 5.24634 92.9588 11.7147 89.3077 20.2771Z" fill="#0875DA"/>
<g opacity="0.2" filter="url(#filter2_f)">
<path d="M75.8507 28.1423C74.2817 28.8807 72.8152 29.1153 71.8885 28.6684C68.7995 27.179 69.1446 14.2011 71.4107 12.0719C67.1892 13.4048 65.9335 28.1494 69.7206 29.9754C71.0697 30.6259 73.5629 29.8324 75.8507 28.1423Z" fill="#0867BF"/>
</g>
<path fill-rule="evenodd" clip-rule="evenodd" d="M80.0921 7.90679C80.5495 8.31504 80.5893 9.01673 80.181 9.47405L73.5088 16.9484C73.333 17.1453 73.414 17.4576 73.6633 17.5442L75.3306 18.1239L78.1747 13.8186C78.5126 13.3071 79.2012 13.1664 79.7127 13.5043C80.2242 13.8422 80.3649 14.5307 80.027 15.0422L77.5501 18.7917L78.9048 19.1649C79.4958 19.3277 79.8429 19.9389 79.6801 20.5299C79.5173 21.1209 78.9061 21.468 78.3151 21.3052L76.2738 20.7428L74.4146 23.6374C74.0833 24.1532 73.3966 24.3028 72.8808 23.9715C72.3649 23.6402 72.2154 22.9535 72.5467 22.4377L74.0857 20.0414L72.9343 19.6411C71.1893 19.0345 70.6223 16.8482 71.8527 15.47L78.5249 7.99565C78.9331 7.53833 79.6348 7.49854 80.0921 7.90679Z" fill="#CEE6FD"/>
<defs>
<filter id="filter0_f" x="13.0129" y="28.2531" width="23.4437" height="25.9987" filterUnits="userSpaceOnUse" color-interpolation-filters="sRGB">
<feFlood flood-opacity="0" result="BackgroundImageFix"/>
<feBlend mode="normal" in="SourceGraphic" in2="BackgroundImageFix" result="shape"/>
<feGaussianBlur stdDeviation="1.48" result="effect1_foregroundBlur"/>
</filter>
<filter id="filter1_f" x="30.4628" y="34.2718" width="21.006" height="29.8202" filterUnits="userSpaceOnUse" color-interpolation-filters="sRGB">
<feFlood flood-opacity="0" result="BackgroundImageFix"/>
<feBlend mode="normal" in="SourceGraphic" in2="BackgroundImageFix" result="shape"/>
<feGaussianBlur stdDeviation="1.85" result="effect1_foregroundBlur"/>
</filter>
<filter id="filter2_f" x="64.5024" y="9.1119" width="14.3083" height="24.05" filterUnits="userSpaceOnUse" color-interpolation-filters="sRGB">
<feFlood flood-opacity="0" result="BackgroundImageFix"/>
<feBlend mode="normal" in="SourceGraphic" in2="BackgroundImageFix" result="shape"/>
<feGaussianBlur stdDeviation="1.48" result="effect1_foregroundBlur"/>
</filter>
<linearGradient id="paint0_linear" x1="49" y1="9" x2="49" y2="93" gradientUnits="userSpaceOnUse">
<stop stop-color="#F0F8FF"/>
<stop offset="1" stop-color="#F2F9FF"/>
</linearGradient>
</defs>
</svg>
