<svg width="100" height="100" viewBox="0 0 100 100" fill="none" xmlns="http://www.w3.org/2000/svg">
<circle opacity="0.6" cx="50" cy="50" r="42" fill="url(#paint0_linear)"/>
<mask id="mask0" mask-type="alpha" maskUnits="userSpaceOnUse" x="8" y="8" width="84" height="84">
<circle cx="50" cy="50" r="42" fill="#F0F8FF"/>
</mask>
<g mask="url(#mask0)">
<rect x="47.5603" y="6.55994" width="8.14" height="91.02" rx="0.74" fill="#CEE6FD"/>
<path d="M46.0803 36.1599C46.0803 35.3425 46.7429 34.6799 47.5603 34.6799H55.7003C56.5177 34.6799 57.1803 35.3426 57.1803 36.1599V50.9599C57.1803 51.3686 56.849 51.6999 56.4403 51.6999H46.8203C46.4116 51.6999 46.0803 51.3686 46.0803 50.9599V36.1599Z" fill="#9DCEFB"/>
<path d="M56.9124 51.4954C57.0354 51.2494 56.8566 50.96 56.5815 50.96L46.6788 50.96C46.4038 50.96 46.2249 51.2494 46.3479 51.4954L46.7179 52.2354C46.7806 52.3608 46.9087 52.44 47.0488 52.44L56.2115 52.44C56.3516 52.44 56.4798 52.3608 56.5424 52.2354L56.9124 51.4954Z" fill="#2492F7"/>
<rect opacity="0.3" width="8.14" height="1.48" transform="matrix(1 0 0 -1 47.5603 30.2399)" fill="#9DCEFB"/>
<rect opacity="0.3" width="8.14" height="1.48" transform="matrix(1 0 0 -1 47.5603 53.9199)" fill="#9DCEFB"/>
<rect opacity="0.3" width="8.14" height="1.48" transform="matrix(1 0 0 -1 47.5603 18.3999)" fill="#9DCEFB"/>
<path fill-rule="evenodd" clip-rule="evenodd" d="M9.11773 39.3141C0.275306 40.4324 -8.17188 39.6531 -13.2715 38.5838L-12.9678 37.1353C-8.01206 38.1744 0.269108 38.9414 8.93204 37.8458C17.6014 36.7493 26.5611 33.7999 32.9818 27.4921L34.019 28.5478C27.2764 35.172 17.9537 38.1966 9.11773 39.3141Z" fill="#2492F7"/>
</g>
<path fill-rule="evenodd" clip-rule="evenodd" d="M74.2593 69.1946C70.5075 60.378 67.9102 47.3207 67.9102 28.7599H69.3902C69.3902 47.1991 71.9729 60.0417 75.6211 68.6151C79.2727 77.1964 83.9563 81.4285 88.1242 82.8179L87.6561 84.2219C82.9441 82.6512 78.0077 78.0034 74.2593 69.1946Z" fill="#2492F7"/>
<path d="M90.1102 81.6699L89.0002 75.3799" stroke="#2492F7" stroke-width="1.48"/>
<path d="M92.9357 82.7798L97.3757 79.0798" stroke="#2492F7" stroke-width="1.48"/>
<path d="M92.9997 85.7398L97.4329 89.0699" stroke="#2492F7" stroke-width="1.48"/>
<path d="M86.7801 91.66L89.7404 86.5594" stroke="#2492F7" stroke-width="1.48"/>
<rect x="73.4602" y="13.9598" width="2.96" height="43.66" rx="0.74" transform="rotate(90 73.4602 13.9598)" fill="#CEE6FD"/>
<rect x="32.7603" y="10.2599" width="2.22" height="3.7" fill="#0867BF"/>
<rect x="31.2803" y="8.03992" width="5.18" height="4.44" rx="0.74" fill="#2492F7"/>
<rect x="68.2803" y="10.2599" width="2.22" height="3.7" fill="#0867BF"/>
<rect x="66.8003" y="8.03992" width="5.18" height="4.44" rx="0.74" fill="#2492F7"/>
<rect x="73.4602" y="25.7999" width="2.96" height="43.66" rx="0.74" transform="rotate(90 73.4602 25.7999)" fill="#CEE6FD"/>
<rect x="32.7603" y="22.0999" width="2.22" height="3.7" fill="#0867BF"/>
<rect x="31.2803" y="19.8799" width="5.18" height="4.44" rx="0.74" fill="#2492F7"/>
<rect x="68.2803" y="22.0999" width="2.22" height="3.7" fill="#0867BF"/>
<rect x="66.8003" y="19.8799" width="5.18" height="4.44" rx="0.74" fill="#2492F7"/>
<defs>
<linearGradient id="paint0_linear" x1="50" y1="8" x2="50" y2="92" gradientUnits="userSpaceOnUse">
<stop stop-color="#F0F8FF"/>
<stop offset="1" stop-color="#F2F9FF"/>
</linearGradient>
</defs>
</svg>
