<svg width="100" height="100" viewBox="0 0 100 100" fill="none" xmlns="http://www.w3.org/2000/svg">
<circle opacity="0.6" cx="50" cy="50" r="42" fill="url(#paint0_linear)"/>
<path opacity="0.71" d="M33.8602 23.0484C33.8602 18.8022 35.8546 15.36 39.4102 15.36C42.9658 15.36 44.9602 18.8022 44.9602 23.0484L45.3302 47.92L47.0877 45.8972C47.7254 44.831 48.0682 43.5535 48.0682 42.2432V35.4565C48.0682 33.5531 49.3603 32.01 50.9542 32.01C52.5481 32.01 53.8402 33.5531 53.8402 35.4565V41.9756C53.8402 44.6661 53.1319 47.2885 51.8155 49.4719L45.7002 59.39V82.7H33.1202L33.4902 64.94L27.5702 57.17C25.7202 54.381 25.7202 53.4175 25.7202 50.727V43.48C25.7202 41.5765 26.7163 40.15 28.3102 40.15C29.9041 40.15 30.7522 41.5765 30.7522 43.48V50.727C30.7522 52.0373 31.095 53.3148 31.7328 54.381L33.4902 56.06L33.8602 23.0484Z" fill="#2492F7"/>
<path d="M34.6001 18.9354C34.1134 20.1248 33.8602 21.5356 33.8602 23.0484V56.43L31.7328 54.381C31.095 53.3148 30.7522 52.0373 30.7522 50.727V43.48C30.7522 42.6788 30.5162 41.9621 30.1602 41.4008V51.6944C30.1602 52.9701 30.6669 54.1936 31.569 55.0956L34.6001 58.1267V18.9354Z" fill="#2492F7"/>
<path d="M29.4202 40.5776C29.1819 40.3949 28.9298 40.2657 28.6802 40.1999V52.1459C28.6802 53.3767 29.1519 54.5606 29.9984 55.454L34.6001 60.3114V59.1732L31.0457 55.6189C30.0049 54.578 29.4202 53.1664 29.4202 51.6944V40.5776Z" fill="#2492F7"/>
<path d="M27.9402 40.1768C27.6726 40.2164 27.4252 40.2993 27.2002 40.4199V52.6826C27.2002 53.8202 27.6035 54.9211 28.3383 55.7895L34.6001 63.1898V61.3874L29.4611 55.9629C28.4845 54.932 27.9402 53.566 27.9402 52.1459V40.1768Z" fill="#2492F7"/>
<path d="M26.4602 41.046C25.9851 41.6437 25.7202 42.4984 25.7202 43.48V50.727C25.7202 53.4175 25.8838 54.6166 27.2002 56.8L33.4902 64.94L33 82.7H34.6001V64.3354L27.7734 56.2675C26.9255 55.2654 26.4602 53.9952 26.4602 52.6826V41.046Z" fill="#2492F7"/>
<path d="M35.3401 82.7V17.5561C35.7522 16.9618 36.247 16.4673 36.8201 16.0988V82.7H35.3401Z" fill="#2492F7"/>
<path d="M37.5601 82.7H39.04V15.3727C38.5087 15.4096 38.0148 15.5262 37.5601 15.7128V82.7Z" fill="#2492F7"/>
<path d="M39.78 15.3727V82.7H41.26V15.7127C40.8052 15.5261 40.3114 15.4096 39.78 15.3727Z" fill="#2492F7"/>
<path d="M42 16.0986V82.7H43.4802V17.556C43.068 16.9616 42.5732 16.467 42 16.0986Z" fill="#2492F7"/>
<path d="M44.2202 18.9351V50.4816C44.8048 49.9716 45.4925 49.2613 46.1544 48.468C47.0537 47.3901 47.8776 46.1922 48.3212 45.1813L48.3342 45.1517L48.3521 45.1248C48.3984 45.0554 48.4639 44.8749 48.5242 44.5403C48.5816 44.2221 48.6267 43.812 48.6609 43.3268C48.7293 42.3573 48.7525 41.119 48.7525 39.78C48.7525 38.4424 48.7294 37.0116 48.7063 35.6585L48.7015 35.3787C48.6893 34.6691 48.6776 33.984 48.6697 33.3502C48.2926 33.9327 48.0682 34.6633 48.0682 35.4565V42.2432C48.0682 43.5535 47.7254 44.831 47.0877 45.8972L44.9602 48.29V23.0484C44.9602 21.5355 44.707 20.1246 44.2202 18.9351Z" fill="#2492F7"/>
<path d="M49.4019 32.5505C49.4074 33.3837 49.4239 34.3477 49.4414 35.3679L49.4462 35.6459C49.4693 36.9984 49.4925 38.4352 49.4925 39.78C49.4925 41.1235 49.4694 42.3827 49.3991 43.3789C49.364 43.8764 49.3165 44.3162 49.2525 44.6715C49.1943 44.9944 49.1146 45.297 48.9873 45.5049C48.5015 46.6004 47.6351 47.8483 46.7226 48.942C45.8661 49.9686 44.9446 50.8883 44.2202 51.4371V53.2293C44.4336 52.9879 44.648 52.7462 44.8622 52.5047C45.7572 51.4957 46.6486 50.4909 47.4484 49.531C48.6393 48.1016 49.5892 46.8154 50.0293 45.8125C50.1032 45.6441 50.1718 45.3573 50.2269 44.9477C50.2809 44.5456 50.3186 44.0522 50.343 43.4876C50.3916 42.3586 50.3856 40.9676 50.3556 39.4965C50.3304 38.2556 50.2877 36.9532 50.247 35.7102C50.2045 34.4134 50.1641 33.1799 50.1477 32.1464C49.8812 32.2388 49.6305 32.376 49.4019 32.5505Z" fill="#2492F7"/>
<path d="M50.8857 32.0109C50.9005 33.0598 50.9419 34.3226 50.9859 35.6619C51.0267 36.9059 51.0697 38.2159 51.0955 39.4814C51.1256 40.9566 51.1319 42.3665 51.0823 43.5194C51.0575 44.0957 51.0184 44.6135 50.9603 45.0463C50.9031 45.4714 50.824 45.843 50.7069 46.1099C50.2199 47.2196 49.2057 48.5778 48.0169 50.0047C47.2099 50.9732 46.3051 51.9934 45.4056 53.0074L45.4043 53.0089C45.0055 53.4584 44.6078 53.9068 44.2202 54.3489V56.6954C44.2438 56.6707 44.2678 56.6452 44.2924 56.6191C44.5773 56.3151 44.9127 55.929 45.2819 55.4831C46.0199 54.5919 46.884 53.4724 47.7345 52.3163C48.5848 51.1604 49.419 49.9712 50.0974 48.9411C50.7809 47.9032 51.2916 47.0485 51.5093 46.5525C51.7133 46.0875 51.8588 45.2399 51.9504 44.1089C52.0407 42.9934 52.0757 41.6502 52.0817 40.2268C52.0877 38.8043 52.0649 37.3083 52.0404 35.8879L52.0319 35.3941C52.012 34.2528 51.9931 33.1724 51.9903 32.2388C51.6687 32.091 51.3194 32.01 50.9542 32.01C50.9313 32.01 50.9085 32.0103 50.8857 32.0109Z" fill="#2492F7"/>
<path d="M52.7332 32.7425C52.7398 33.5462 52.7553 34.4402 52.7717 35.38L52.7718 35.3818L52.7803 35.8752C52.8048 37.2955 52.8278 38.7987 52.8217 40.2299C52.8156 41.6602 52.7806 43.0253 52.688 44.1687C52.5967 45.2966 52.4464 46.2586 52.1869 46.8499C51.941 47.4102 51.3972 48.3128 50.7155 49.348C50.0286 50.391 49.1868 51.5909 48.3306 52.7548C47.4745 53.9186 46.6014 55.0499 45.8519 55.9551C45.4772 56.4075 45.1313 56.8061 44.8323 57.1251C44.6071 57.3653 44.3993 57.5706 44.2202 57.7203V82.7H45.8519L45.7002 59.39L51.8155 49.4719C53.1319 47.2885 53.8402 44.6661 53.8402 41.9756V35.4565C53.8402 34.3546 53.4072 33.3734 52.7332 32.7425Z" fill="#2492F7"/>
<path d="M74.355 73.5174C74.355 73.7725 74.3507 74.0254 74.3426 74.2757C76.2798 70.4996 78.3955 66.791 78.3955 66.791C78.3955 66.791 79.8311 73.2246 77.7701 77.3361C77.3909 78.0927 76.9577 78.7892 76.5031 79.4221C76.8745 79.1952 77.2635 78.9788 77.6697 78.7781C81.7926 76.7401 85.7493 74.5328 85.7493 74.5328C85.7493 74.5328 83.7607 80.7216 79.6378 82.7596C75.5148 84.7976 71.1885 84.4589 71.1885 84.4589C71.1885 84.4589 71.48 84.0085 72.0374 83.3358C72.0371 83.311 72.0368 83.2853 72.0366 83.2586C71.8596 83.1221 71.6566 82.9597 71.4342 82.7721C69.8045 82.6278 67.5326 82.2186 65.3194 81.1246C61.1964 79.0866 60.6301 72.3426 60.6301 72.3426C60.6301 72.3426 62.9887 74.9135 66.8568 76.9247C65.0672 72.8785 66.1819 67.9013 66.1819 67.9013C66.1819 67.9013 68.3967 70.5583 70.3382 74.0541C70.3341 73.8764 70.332 73.6975 70.332 73.5174C70.332 67.9628 72.3435 63.46 72.3435 63.46C72.3435 63.46 74.355 67.9628 74.355 73.5174Z" fill="#9DCEFB"/>
<path d="M32.9643 75.3C22.9938 75.3 16.0871 81.7134 13.8801 84.92H95.2801C93.0343 84.2477 85.9497 82.9645 74.503 82.7355C71.2598 80.909 65.8797 79 58.5294 79C54.1576 79 50.3415 79.6754 47.2038 80.607C44.0916 77.8937 39.305 75.3 32.9643 75.3Z" fill="#CEE6FD"/>
<circle cx="69.3802" cy="36.82" r="5.18" fill="#CEE6FD"/>
<defs>
<linearGradient id="paint0_linear" x1="50" y1="8" x2="50" y2="92" gradientUnits="userSpaceOnUse">
<stop stop-color="#F0F8FF"/>
<stop offset="1" stop-color="#F2F9FF"/>
</linearGradient>
</defs>
</svg>
