<svg width="100" height="100" viewBox="0 0 100 100" fill="none" xmlns="http://www.w3.org/2000/svg">
<circle opacity="0.6" cx="50" cy="50" r="42" fill="url(#paint0_linear)"/>
<rect x="30.1599" y="33.72" width="5.92" height="47.36" rx="0.74" fill="#CEE6FD"/>
<rect opacity="0.6" width="5.92" height="1.48" transform="matrix(1 0 0 -1 30.1599 45.5601)" fill="#9DCEFB"/>
<rect opacity="0.6" width="5.92" height="1.48" transform="matrix(1 0 0 -1 30.1599 60.36)" fill="#9DCEFB"/>
<rect opacity="0.6" width="5.92" height="1.48" transform="matrix(1 0 0 -1 57.5398 58.14)" fill="#9DCEFB"/>
<rect x="84.1799" y="33.72" width="5.92" height="47.36" rx="0.74" fill="#CEE6FD"/>
<rect x="27.9399" y="77.38" width="10.36" height="3.7" rx="0.74" fill="#9DCEFB"/>
<rect x="81.96" y="77.38" width="10.36" height="3.7" rx="0.74" fill="#9DCEFB"/>
<rect x="25.72" y="47.04" width="68.82" height="11.84" rx="0.74" fill="#2492F7"/>
<mask id="mask0" mask-type="alpha" maskUnits="userSpaceOnUse" x="25" y="47" width="70" height="12">
<rect x="25.72" y="47.04" width="68.82" height="11.84" rx="0.74" fill="#2492F7"/>
</mask>
<g mask="url(#mask0)">
<path opacity="0.1" d="M34.896 30.02H40.7949L33.5851 65.91H27.6863L34.896 30.02Z" fill="#CEE6FD"/>
<path opacity="0.1" d="M61.1133 30.02H67.0121L59.8024 65.91H53.9036L61.1133 30.02Z" fill="#CEE6FD"/>
<path opacity="0.1" d="M48.0046 30.02H53.9035L46.6938 65.91H40.7949L48.0046 30.02Z" fill="#CEE6FD"/>
<path opacity="0.1" d="M74.2214 30.02H80.1203L72.9106 65.91H67.0117L74.2214 30.02Z" fill="#CEE6FD"/>
<path opacity="0.1" d="M87.3301 30.02H93.2289L86.0192 65.91H80.1204L87.3301 30.02Z" fill="#CEE6FD"/>
</g>
<rect x="25.72" y="38.16" width="68.82" height="5.92" rx="0.74" fill="#2492F7"/>
<mask id="mask1" mask-type="alpha" maskUnits="userSpaceOnUse" x="25" y="38" width="70" height="7">
<rect x="25.72" y="38.16" width="68.82" height="5.92" rx="0.74" fill="#2492F7"/>
</mask>
<g mask="url(#mask1)">
<path opacity="0.1" d="M34.896 22.7679H40.7949L33.5851 51.4799H27.6863L34.896 22.7679Z" fill="#CEE6FD"/>
<path opacity="0.1" d="M61.1133 22.7679H67.0121L59.8024 51.4799H53.9036L61.1133 22.7679Z" fill="#CEE6FD"/>
<path opacity="0.1" d="M48.0046 22.7679H53.9035L46.6938 51.4799H40.7949L48.0046 22.7679Z" fill="#CEE6FD"/>
<path opacity="0.1" d="M74.2214 22.7679H80.1203L72.9106 51.4799H67.0117L74.2214 22.7679Z" fill="#CEE6FD"/>
<path opacity="0.1" d="M87.3301 22.7679H93.2289L86.0192 51.4799H80.1204L87.3301 22.7679Z" fill="#CEE6FD"/>
</g>
<rect opacity="0.6" width="5.92" height="1.48" transform="matrix(1 0 0 -1 84.1799 45.5601)" fill="#9DCEFB"/>
<rect opacity="0.6" width="5.92" height="1.48" transform="matrix(1 0 0 -1 84.1799 60.36)" fill="#9DCEFB"/>
<circle cx="74.5065" cy="48.4669" r="8.8198" transform="rotate(11.8511 74.5065 48.4669)" fill="#0875DA" stroke="#F0F8FF" stroke-width="1.48"/>
<rect x="69.1682" y="46.9869" width="10.677" height="2.96" rx="0.74" fill="white"/>
<path d="M5.74 80.7465L11.4704 57.7817C11.8458 56.2775 13.9878 56.2895 14.3463 57.7978L19.8 80.7465H5.74Z" fill="#0875DA"/>
<path d="M5 77.7865C5 77.3778 5.33131 77.0465 5.74 77.0465H19.8C20.2087 77.0465 20.54 77.3778 20.54 77.7865V80.0065C20.54 80.4152 20.2087 80.7465 19.8 80.7465H5.74C5.33131 80.7465 5 80.4152 5 80.0065V77.7865Z" fill="#0875DA"/>
<path opacity="0.2" d="M6.47998 77.01H18.9286L18.5586 75.53H6.84998L6.47998 77.01Z" fill="#9DCEFB"/>
<defs>
<linearGradient id="paint0_linear" x1="50" y1="8" x2="50" y2="92" gradientUnits="userSpaceOnUse">
<stop stop-color="#F0F8FF"/>
<stop offset="1" stop-color="#F2F9FF"/>
</linearGradient>
</defs>
</svg>
